<svg width="56" height="56" viewBox="0 0 56 56" fill="none" xmlns="http://www.w3.org/2000/svg">
<g filter="url(#filter0_d_4709_86609)">
<rect x="2" y="1" width="52" height="52" rx="26" fill="#5DC264"/>
<path d="M29.6665 26.6668C29.6665 26.2001 29.6665 25.9668 29.7573 25.7885C29.8372 25.6317 29.9647 25.5042 30.1215 25.4243C30.2998 25.3335 30.5331 25.3335 30.9998 25.3335H34.9998C35.4665 25.3335 35.6999 25.3335 35.8782 25.4243C36.035 25.5042 36.1624 25.6317 36.2423 25.7885C36.3332 25.9668 36.3332 26.2001 36.3332 26.6668V27.3335C36.3332 27.8002 36.3332 28.0336 36.2423 28.2118C36.1624 28.3686 36.035 28.4961 35.8782 28.576C35.6999 28.6668 35.4665 28.6668 34.9998 28.6668H30.9998C30.5331 28.6668 30.2998 28.6668 30.1215 28.576C29.9647 28.4961 29.8372 28.3686 29.7573 28.2118C29.6665 28.0336 29.6665 27.8002 29.6665 27.3335V26.6668Z" fill="white"/>
<path d="M31.9998 20.3335H22.3332C21.3997 20.3335 20.933 20.3335 20.5765 20.5152C20.2629 20.6749 20.0079 20.9299 19.8482 21.2435C19.6665 21.6 19.6665 22.0667 19.6665 23.0002V31.0002C19.6665 31.9336 19.6665 32.4003 19.8482 32.7568C20.0079 33.0704 20.2629 33.3254 20.5765 33.4852C20.933 33.6668 21.3997 33.6668 22.3332 33.6668H31.9998C32.9333 33.6668 33.4 33.6668 33.7565 33.4852C34.0701 33.3254 34.3251 33.0704 34.4848 32.7568C34.6665 32.4003 34.6665 31.9336 34.6665 31.0002V30.3335L30.9613 30.3335C30.7628 30.3336 30.5257 30.3337 30.3168 30.3166C30.0748 30.2968 29.7281 30.2461 29.3649 30.061C28.8945 29.8213 28.512 29.4389 28.2723 28.9685C28.0873 28.6052 28.0365 28.2586 28.0167 28.0165C27.9997 27.8077 27.9998 27.5706 27.9998 27.3721V26.6283C27.9998 26.4297 27.9997 26.1926 28.0167 25.9838C28.0365 25.7417 28.0873 25.3951 28.2723 25.0318C28.512 24.5614 28.8945 24.179 29.3649 23.9393C29.7281 23.7542 30.0748 23.7035 30.3168 23.6837C30.5257 23.6666 30.7628 23.6667 30.9613 23.6668L34.6665 23.6668V23.0002C34.6665 22.0667 34.6665 21.6 34.4848 21.2435C34.3251 20.9299 34.0701 20.6749 33.7565 20.5152C33.4 20.3335 32.9333 20.3335 31.9998 20.3335Z" fill="white"/>
</g>
<defs>
<filter id="filter0_d_4709_86609" x="0" y="0" width="56" height="56" filterUnits="userSpaceOnUse" color-interpolation-filters="sRGB">
<feFlood flood-opacity="0" result="BackgroundImageFix"/>
<feColorMatrix in="SourceAlpha" type="matrix" values="0 0 0 0 0 0 0 0 0 0 0 0 0 0 0 0 0 0 127 0" result="hardAlpha"/>
<feOffset dy="1"/>
<feGaussianBlur stdDeviation="1"/>
<feComposite in2="hardAlpha" operator="out"/>
<feColorMatrix type="matrix" values="0 0 0 0 0.0627451 0 0 0 0 0.0941176 0 0 0 0 0.156863 0 0 0 0.04 0"/>
<feBlend mode="normal" in2="BackgroundImageFix" result="effect1_dropShadow_4709_86609"/>
<feBlend mode="normal" in="SourceGraphic" in2="effect1_dropShadow_4709_86609" result="shape"/>
</filter>
</defs>
</svg>
