<svg width="56" height="56" viewBox="0 0 56 56" fill="none" xmlns="http://www.w3.org/2000/svg">
<g filter="url(#filter0_d_104_81412)">
<rect x="2" y="1" width="52" height="52" rx="26" fill="#437EF7"/>
<path d="M19.6668 22.8335H36.3334C36.3327 22.0099 36.3223 21.5782 36.1518 21.2435C35.992 20.9299 35.737 20.6749 35.4234 20.5152C35.0669 20.3335 34.6002 20.3335 33.6667 20.3335H22.3334C21.4 20.3335 20.9333 20.3335 20.5768 20.5152C20.2632 20.6749 20.0082 20.9299 19.8484 21.2435C19.6779 21.5782 19.6674 22.0099 19.6668 22.8335Z" fill="white"/>
<path fill-rule="evenodd" clip-rule="evenodd" d="M36.3334 24.5002H19.6667V31.0002C19.6667 31.9336 19.6667 32.4003 19.8484 32.7568C20.0082 33.0704 20.2632 33.3254 20.5768 33.4852C20.9333 33.6668 21.4 33.6668 22.3334 33.6668H33.6667C34.6002 33.6668 35.0669 33.6668 35.4234 33.4852C35.737 33.3254 35.992 33.0704 36.1518 32.7568C36.3334 32.4003 36.3334 31.9336 36.3334 31.0002V24.5002ZM22.1667 30.3335C22.1667 29.8733 22.5398 29.5002 23.0001 29.5002H26.3334C26.7937 29.5002 27.1667 29.8733 27.1667 30.3335C27.1667 30.7937 26.7937 31.1668 26.3334 31.1668H23.0001C22.5398 31.1668 22.1667 30.7937 22.1667 30.3335ZM29.6667 29.5002C29.2065 29.5002 28.8334 29.8733 28.8334 30.3335C28.8334 30.7937 29.2065 31.1668 29.6667 31.1668H33.0001C33.4603 31.1668 33.8334 30.7937 33.8334 30.3335C33.8334 29.8733 33.4603 29.5002 33.0001 29.5002H29.6667Z" fill="white"/>
</g>
<defs>
<filter id="filter0_d_104_81412" x="0" y="0" width="56" height="56" filterUnits="userSpaceOnUse" color-interpolation-filters="sRGB">
<feFlood flood-opacity="0" result="BackgroundImageFix"/>
<feColorMatrix in="SourceAlpha" type="matrix" values="0 0 0 0 0 0 0 0 0 0 0 0 0 0 0 0 0 0 127 0" result="hardAlpha"/>
<feOffset dy="1"/>
<feGaussianBlur stdDeviation="1"/>
<feComposite in2="hardAlpha" operator="out"/>
<feColorMatrix type="matrix" values="0 0 0 0 0.0627451 0 0 0 0 0.0941176 0 0 0 0 0.156863 0 0 0 0.04 0"/>
<feBlend mode="normal" in2="BackgroundImageFix" result="effect1_dropShadow_104_81412"/>
<feBlend mode="normal" in="SourceGraphic" in2="effect1_dropShadow_104_81412" result="shape"/>
</filter>
</defs>
</svg>
