<svg width="56" height="56" viewBox="0 0 56 56" fill="none" xmlns="http://www.w3.org/2000/svg">
<g filter="url(#filter0_d_4709_86620)">
<rect x="2" y="1" width="52" height="52" rx="26" fill="#FFAE43"/>
<path d="M27.1668 17.8706C25.2612 18.0423 23.5237 18.7972 22.1343 19.9555L27.1668 24.9881V17.8706Z" fill="white"/>
<path d="M20.9558 21.134C19.6307 22.7236 18.8335 24.7687 18.8335 26.9999C18.8335 29.2311 19.6307 31.2762 20.9558 32.8658L26.8217 26.9999L20.9558 21.134Z" fill="white"/>
<path d="M22.1343 34.0443L28.3453 27.8332C28.6579 27.5207 28.8335 27.0968 28.8335 26.6547V17.8706C33.5056 18.2916 37.1668 22.2182 37.1668 26.9999C37.1668 32.0625 33.0628 36.1666 28.0002 36.1666C25.7689 36.1666 23.7239 35.3694 22.1343 34.0443Z" fill="white"/>
</g>
<defs>
<filter id="filter0_d_4709_86620" x="0" y="0" width="56" height="56" filterUnits="userSpaceOnUse" color-interpolation-filters="sRGB">
<feFlood flood-opacity="0" result="BackgroundImageFix"/>
<feColorMatrix in="SourceAlpha" type="matrix" values="0 0 0 0 0 0 0 0 0 0 0 0 0 0 0 0 0 0 127 0" result="hardAlpha"/>
<feOffset dy="1"/>
<feGaussianBlur stdDeviation="1"/>
<feComposite in2="hardAlpha" operator="out"/>
<feColorMatrix type="matrix" values="0 0 0 0 0.0627451 0 0 0 0 0.0941176 0 0 0 0 0.156863 0 0 0 0.04 0"/>
<feBlend mode="normal" in2="BackgroundImageFix" result="effect1_dropShadow_4709_86620"/>
<feBlend mode="normal" in="SourceGraphic" in2="effect1_dropShadow_4709_86620" result="shape"/>
</filter>
</defs>
</svg>
